<svg width="139" height="116" viewBox="0 0 139 116" fill="none" xmlns="http://www.w3.org/2000/svg">
<circle cx="69.3997" cy="46.4931" r="55.0444" transform="rotate(72.0313 69.3997 46.4931)" fill="url(#paint0_linear_89_34428)"/>
<g clip-path="url(#clip0_89_34428)">
<path d="M75.9988 66.2657L67.0578 69.1654L59.4924 46.9083L37.5148 53.9683L72.4523 85.0155L75.9988 66.2657Z" fill="#C5C5C5"/>
<path d="M75.9987 66.2656L79.7421 46.4784L45.5646 16.2343L37.5146 53.9682L57.7736 47.4572L66.3452 69.3964L75.9987 66.2656Z" fill="#898989"/>
<path d="M91.6941 74.8724L60.0625 46.9434L52.8226 49.266L83.6498 77.456L91.6941 74.8724Z" fill="#EBEBEB"/>
<path d="M52.8221 49.266L39.6932 53.4815L71.3197 81.4207L83.6493 77.4559L52.8221 49.266Z" fill="white"/>
<path d="M51.8871 48.418L52.8225 49.2659L60.0624 46.9433L67.5218 11.9575L47.1531 18.4957L39.6937 53.4815L52.8225 49.2659L51.8871 48.418Z" fill="#EBEBEB"/>
<path d="M91.6935 74.8724L92.806 34.2584L67.5212 11.9576L60.0618 46.9434L91.6935 74.8724Z" fill="#DCDCDC"/>
<path d="M64.0071 8.24695L98.3154 38.9988L108.919 54.8528L74.6025 24.1034L64.0071 8.24695Z" fill="#8A8480"/>
<path d="M74.6022 24.1033L108.918 54.8527L89.6131 79.8392L55.2971 49.0899L74.6022 24.1033Z" fill="#B3ACA6"/>
<path d="M74.6029 24.1034L55.2978 49.0899L64.0074 8.2469L74.6029 24.1034Z" fill="#6B6663"/>
<path d="M60.1392 16.7645L57.6008 17.5793L59.739 18.6636L60.1392 16.7645Z" fill="#93B3CC"/>
<path d="M59.7395 18.6635L57.6012 17.5792L56.8504 17.8227L59.6177 19.2278L59.7395 18.6635Z" fill="#C9D9E6"/>
<path d="M59.6176 19.2278L56.8504 17.8227L54.0821 18.712L59.1752 21.3099L59.6176 19.2278Z" fill="#93B3CC"/>
<path d="M59.1753 21.3099L54.0822 18.712L53.3059 18.9553L52.9271 20.7374L58.6695 23.6665L59.1753 21.3099Z" fill="#C9D9E6"/>
<path d="M58.6395 23.8114L58.6687 23.6665L52.9263 20.7374L52.5976 22.3085L56.7395 24.4276L58.6395 23.8114Z" fill="#93B3CC"/>
<path d="M56.7397 24.4278L52.5978 22.3087L52.4762 22.8476L56.0247 24.6512L56.7397 24.4278Z" fill="#C9D9E6"/>
<path d="M56.0252 24.6511L52.4767 22.8474L52.1295 24.4923L53.8315 25.354L56.0252 24.6511Z" fill="#93B3CC"/>
<path d="M53.8309 25.3541L52.1289 24.4924L51.8083 26.0101L53.8309 25.3541Z" fill="#C9D9E6"/>
<path d="M53.2261 18.7867L53.57 19.0899L52.1395 25.8014L51.7931 25.4904L53.2261 18.7867Z" fill="#618280"/>
<path d="M59.7203 16.6975L60.0667 17.0084L53.57 19.09L53.2261 18.7867L59.7203 16.6975Z" fill="#567573"/>
<path d="M58.5528 23.6453L58.8968 23.9486L51.736 26.254L51.3896 25.9431L58.5528 23.6453Z" fill="#567573"/>
<path d="M60.1264 16.2525L60.4704 16.5557L58.8968 23.9485L58.5529 23.6452L60.1264 16.2525Z" fill="#618280"/>
<path d="M60.1256 16.2525L58.552 23.6452L51.3888 25.943L52.9624 18.5502L60.1256 16.2525ZM51.7924 25.4904L58.2943 23.3987L59.7247 16.6872L53.2228 18.779L51.7924 25.4904Z" fill="#3C5150"/>
<path d="M55.2622 39.3746L52.7238 40.1894L54.8544 41.2762L55.2622 39.3746Z" fill="#93B3CC"/>
<path d="M54.8547 41.276L52.7241 40.1893L51.9733 40.4328L54.7329 41.8404L54.8547 41.276Z" fill="#C9D9E6"/>
<path d="M54.7329 41.8404L51.9733 40.4328L49.1973 41.3246L54.2904 43.9225L54.7329 41.8404Z" fill="#93B3CC"/>
<path d="M54.2906 43.9225L49.1974 41.3246L48.4288 41.5654L48.0448 43.3576L53.7872 46.2867L54.2906 43.9225Z" fill="#C9D9E6"/>
<path d="M53.7552 46.4241L53.7869 46.2869L48.0445 43.3578L47.7133 44.9212L51.8628 47.0378L53.7552 46.4241Z" fill="#93B3CC"/>
<path d="M51.8627 47.0379L47.7131 44.9213L47.5992 45.4577L51.1401 47.2638L51.8627 47.0379Z" fill="#C9D9E6"/>
<path d="M51.1404 47.2636L47.5996 45.4575L47.2524 47.1023L48.9492 47.9742L51.1404 47.2636Z" fill="#93B3CC"/>
<path d="M48.9486 47.9743L47.2518 47.1025L46.9235 48.6227L48.9486 47.9743Z" fill="#C9D9E6"/>
<path d="M48.3413 41.3992L48.6852 41.7025L47.2548 48.4139L46.9108 48.1106L48.3413 41.3992Z" fill="#618280"/>
<path d="M54.8433 39.3076L55.1897 39.6185L48.6854 41.7026L48.3414 41.3993L54.8433 39.3076Z" fill="#567573"/>
<path d="M53.6757 46.2554L54.012 46.5612L46.8512 48.8666L46.5048 48.5556L53.6757 46.2554Z" fill="#567573"/>
<path d="M55.2495 38.8626L55.5959 39.1735L54.0122 46.5611L53.6759 46.2553L55.2495 38.8626Z" fill="#618280"/>
<path d="M55.2487 38.8626L53.6751 46.2553L46.5118 48.5531L48.0854 41.1603L55.2487 38.8626ZM46.9102 48.1107L53.4121 46.0189L54.8426 39.3075L48.3407 41.3992L46.9102 48.1107Z" fill="#3C5150"/>
<path d="M62.4264 57.9942L59.9006 58.8218L60.9879 56.6915L62.4264 57.9942Z" fill="#93B3CC"/>
<path d="M60.988 56.6915L59.9008 58.8218L59.1423 59.0678L60.5582 56.306L60.988 56.6915Z" fill="#C9D9E6"/>
<path d="M60.5581 56.3061L59.1423 59.0679L56.379 59.9725L58.9779 54.88L60.5581 56.3061Z" fill="#93B3CC"/>
<path d="M58.9779 54.88L56.3789 59.9725L55.6051 60.2235L54.2525 59.0029L57.1828 53.2611L58.9779 54.88Z" fill="#C9D9E6"/>
<path d="M57.0746 53.161L57.1833 53.2612L54.253 59.003L53.0672 57.9315L55.1847 53.7824L57.0746 53.161Z" fill="#93B3CC"/>
<path d="M55.1846 53.7825L53.0671 57.9316L52.6524 57.5666L54.4644 54.016L55.1846 53.7825Z" fill="#C9D9E6"/>
<path d="M54.4639 54.0159L52.6518 57.5665L51.4054 56.4384L52.2752 54.7342L54.4639 54.0159Z" fill="#93B3CC"/>
<path d="M52.2754 54.7341L51.4056 56.4384L50.2553 55.3978L52.2754 54.7341Z" fill="#C9D9E6"/>
<path d="M55.6421 60.4148L55.74 59.9597L50.6454 55.3729L50.5449 55.8203L55.6421 60.4148Z" fill="#618280"/>
<path d="M62.1343 58.2924L62.2246 57.8398L55.7403 59.9597L55.6424 60.4148L62.1343 58.2924Z" fill="#567573"/>
<path d="M57.1042 53.3547L57.2021 52.8997L50.0538 55.2434L49.9558 55.6984L57.1042 53.3547Z" fill="#567573"/>
<path d="M62.7166 58.4168L62.8146 57.9618L57.2017 52.8997L57.1037 53.3548L62.7166 58.4168Z" fill="#618280"/>
<path d="M55.5686 60.7606L49.9557 55.6985L57.104 53.3548L62.7169 58.4169L55.5686 60.7606ZM50.5456 55.8204L55.6427 60.4148L62.1347 58.2925L57.0376 53.698L50.5456 55.8204Z" fill="#3C5150"/>
<path d="M81.0715 75.016L78.538 75.8461L79.6228 73.7081L81.0715 75.016Z" fill="#93B3CC"/>
<path d="M79.6228 73.7081L78.538 75.8461L77.7872 76.0896L79.1929 73.3226L79.6228 73.7081Z" fill="#C9D9E6"/>
<path d="M79.1924 73.3226L77.7866 76.0896L75.0157 76.9967L77.6147 71.9042L79.1924 73.3226Z" fill="#93B3CC"/>
<path d="M77.6146 71.9041L75.0157 76.9967L74.2495 77.2452L72.8892 76.0271L75.8195 70.2853L77.6146 71.9041Z" fill="#C9D9E6"/>
<path d="M75.7113 70.1852L75.82 70.2854L72.8897 76.0272L71.7039 74.9557L73.8214 70.8066L75.7113 70.1852Z" fill="#93B3CC"/>
<path d="M73.8213 70.8066L71.7038 74.9557L71.2942 74.5806L73.1011 71.0402L73.8213 70.8066Z" fill="#C9D9E6"/>
<path d="M73.1016 71.04L71.2947 74.5805L70.0431 73.4626L70.9129 71.7583L73.1016 71.04Z" fill="#93B3CC"/>
<path d="M70.9121 71.7585L70.0423 73.4628L68.892 72.4222L70.9121 71.7585Z" fill="#C9D9E6"/>
<path d="M74.2793 77.439L74.3773 76.984L69.2802 72.3896L69.1822 72.8446L74.2793 77.439Z" fill="#618280"/>
<path d="M80.7687 75.309L80.8691 74.8616L74.3772 76.9839L74.2792 77.439L80.7687 75.309Z" fill="#567573"/>
<path d="M75.7409 70.3789L75.8389 69.9238L68.6905 72.2675L68.5901 72.7149L75.7409 70.3789Z" fill="#567573"/>
<path d="M81.3611 75.4386L81.4591 74.9835L75.8386 69.9239L75.7406 70.379L81.3611 75.4386Z" fill="#618280"/>
<path d="M74.2102 77.7745L68.5973 72.7124L75.7456 70.3687L81.3585 75.4308L74.2102 77.7745ZM69.182 72.8445L74.2791 77.4389L80.7711 75.3165L75.674 70.7221L69.182 72.8445Z" fill="#3C5150"/>
<path d="M57.4615 28.0372L54.9307 28.8495L57.0613 29.9363L57.4615 28.0372Z" fill="#93B3CC"/>
<path d="M57.0613 29.9363L54.9307 28.8495L54.1697 29.0879L56.9395 30.5006L57.0613 29.9363Z" fill="#C9D9E6"/>
<path d="M56.9395 30.5006L54.1697 29.0878L51.4014 29.9772L56.4945 32.5751L56.9395 30.5006Z" fill="#93B3CC"/>
<path d="M56.4951 32.575L51.402 29.9771L50.6282 30.228L50.2493 32.0101L55.9918 34.9392L56.4951 32.575Z" fill="#C9D9E6"/>
<path d="M55.9618 35.0841L55.991 34.9392L50.2486 32.0101L49.9174 33.5736L54.0593 35.6927L55.9618 35.0841Z" fill="#93B3CC"/>
<path d="M54.06 35.6927L49.9181 33.5736L49.799 34.1201L53.3475 35.9237L54.06 35.6927Z" fill="#C9D9E6"/>
<path d="M53.3475 35.9238L49.799 34.1201L49.4493 35.7573L51.1538 36.6267L53.3475 35.9238Z" fill="#93B3CC"/>
<path d="M51.1537 36.6267L49.4492 35.7573L49.1286 37.275L51.1537 36.6267Z" fill="#C9D9E6"/>
<path d="M50.5454 30.0515L50.8918 30.3625L49.4613 37.0739L49.1149 36.763L50.5454 30.0515Z" fill="#618280"/>
<path d="M57.0498 27.9676L57.386 28.2733L50.8918 30.3626L50.5454 30.0516L57.0498 27.9676Z" fill="#567573"/>
<path d="M55.8717 34.9101L56.218 35.2211L49.0548 37.5188L48.7109 37.2156L55.8717 34.9101Z" fill="#567573"/>
<path d="M57.4458 27.5174L57.7922 27.8283L56.2186 35.2211L55.8722 34.9101L57.4458 27.5174Z" fill="#618280"/>
<path d="M57.445 27.5174L55.8714 34.9101L48.7081 37.2079L50.2817 29.8151L57.445 27.5174ZM49.1142 36.763L55.6161 34.6712L57.0465 27.9598L50.5446 30.0515L49.1142 36.763Z" fill="#3C5150"/>
<path d="M70.1456 67.5629L59.4755 71.0573L54.8916 66.9228L65.5618 63.4285L70.1456 67.5629Z" fill="#543530"/>
<path d="M59.623 70.366L58.9488 70.5846L59.4723 71.0498L59.623 70.366Z" fill="#888888"/>
<path d="M69.476 67.7717L69.6191 67.0903L59.6232 70.366L59.4724 71.0498L69.476 67.7717Z" fill="#888888"/>
<path d="M54.2243 67.1392L54.3751 66.4554L65.7041 62.7473L65.561 63.4286L54.2243 67.1392Z" fill="#888888"/>
<path d="M65.561 63.4286L65.7041 62.7473L70.8114 67.3469L70.6606 68.0307L65.561 63.4286Z" fill="#DBDBDB"/>
<path d="M59.4731 71.0499L58.9345 70.5642L58.8065 71.266L59.4731 71.0499Z" fill="#888888"/>
<path d="M70.661 68.0307L65.5614 63.4286L54.2247 67.1391L54.7633 67.6248L55.4298 67.4086L55.4172 67.3958L65.4208 64.1176L69.4762 67.7716L59.4726 71.0498L58.8061 71.2659L59.332 71.7387L70.661 68.0307Z" fill="#C5C5C5"/>
<path d="M89.6286 79.8345C89.7172 77.4185 87.7 77.4124 87.1368 77.4511L91.0498 72.3896L93.5681 74.6458C93.6534 72.324 91.7923 72.2249 91.1527 72.2631L95.0349 67.2369L97.5077 69.4571C97.5846 67.2142 95.854 67.0474 95.1585 67.0698L99.0123 62.0867L101.45 64.2761C101.531 62.0994 99.9029 61.8825 99.1668 61.8842L102.99 56.9365L105.389 59.0874C105.468 56.9794 103.939 56.7048 103.175 56.6986L106.378 52.5532C106.414 52.5076 106.409 52.4414 106.361 52.3977C106.315 52.3617 106.249 52.3663 106.208 52.422L102.897 56.704C102.806 56.7084 102.75 56.7181 102.75 56.7181L102.83 56.785L98.8814 61.8921C98.8406 61.8969 98.8075 61.8992 98.8075 61.8992L98.8454 61.9377L90.919 72.195C90.9552 69.9568 89.1349 69.853 88.5029 69.8886L92.3851 64.8625L94.8579 67.0827C94.9348 64.8398 93.2042 64.673 92.5087 64.6954L96.3625 59.7123L98.7998 61.9016C98.8814 59.725 97.2531 59.5081 96.517 59.5098L100.34 54.5621L102.739 56.713C102.818 54.605 101.289 54.3304 100.525 54.3242L103.728 50.1788C103.764 50.1332 103.759 50.067 103.711 50.0233C103.666 49.9873 103.599 49.9918 103.558 50.0475L100.25 54.3373C100.158 54.3416 100.102 54.3514 100.102 54.3514L100.183 54.4182L96.2341 59.5253C96.1933 59.5301 96.1602 59.5324 96.1602 59.5324L96.1981 59.5709L88.2716 69.8282C88.3078 67.59 86.4876 67.4862 85.8556 67.5219L89.7378 62.4957L92.2105 64.7159C92.2875 62.473 90.5569 62.3062 89.8614 62.3286L93.7152 57.3455L96.1525 59.5349C96.2341 57.3582 94.6057 57.1413 93.8696 57.143L97.6926 52.1953L100.092 54.3462C100.17 52.2382 98.6419 51.9636 97.8779 51.9574L101.08 47.812C101.116 47.7664 101.112 47.7002 101.064 47.6565C101.018 47.6205 100.952 47.6251 100.911 47.6808L97.6002 51.9628C97.5085 51.9672 97.4524 51.9769 97.4524 51.9769L97.5333 52.0438L93.5843 57.1509C93.5435 57.1557 93.5104 57.158 93.5104 57.158L93.5483 57.1965L85.6218 67.4538C85.658 65.2156 83.8402 65.1194 83.2058 65.1474L87.0879 60.1213L89.5607 62.3415C89.6377 60.0986 87.9071 59.9318 87.2116 59.9542L91.0653 54.9711L93.5027 57.1604C93.5843 54.9838 91.9559 54.7669 91.2198 54.7686L95.0427 49.8209L97.4422 51.9718C97.5207 49.8638 95.9921 49.5892 95.2281 49.583L98.4306 45.4376C98.4666 45.392 98.4621 45.3258 98.414 45.2821C98.3685 45.2461 98.3022 45.2506 98.261 45.3063L94.9529 49.5961C94.8612 49.6004 94.8051 49.6102 94.8051 49.6102L94.886 49.677L90.937 54.7841C90.8962 54.7889 90.8631 54.7912 90.8631 54.7912L90.901 54.8297L82.9745 65.087C83.0107 62.8488 81.1904 62.745 80.5585 62.7807L84.4406 57.7545L86.9134 59.9747C86.9904 57.7318 85.2598 57.565 84.5643 57.5874L88.418 52.6043L90.8554 54.7937C90.9369 52.617 89.3086 52.4001 88.5725 52.4018L92.3954 47.4541L94.7949 49.605C94.8733 47.4971 93.3448 47.2224 92.5808 47.2162L95.7833 43.0708C95.8193 43.0253 95.8148 42.959 95.7667 42.9153C95.7212 42.8793 95.6549 42.8839 95.6137 42.9396L92.3056 47.2293C92.2139 47.2337 92.1577 47.2434 92.1577 47.2434L92.2387 47.3103L88.2897 52.4174C88.2489 52.4221 88.2157 52.4244 88.2157 52.4244L88.2536 52.4629L80.3272 62.7202C80.3634 60.4821 78.5456 60.3859 77.9112 60.4139L81.7933 55.3877L84.2661 57.6079C84.3431 55.365 82.6125 55.1982 81.9169 55.2206L85.7707 50.2375L88.2081 52.4269C88.2896 50.2502 86.6613 50.0334 85.9252 50.0351L89.7481 45.0874L92.1476 47.2382C92.226 45.1303 90.6975 44.8556 89.9334 44.8495L93.1359 40.704C93.172 40.6585 93.1674 40.5922 93.1194 40.5486C93.0738 40.5125 93.0076 40.5171 92.9664 40.5728L89.6558 44.8549C89.564 44.8592 89.5079 44.869 89.5079 44.869L89.5889 44.9358L85.6399 50.0429C85.5991 50.0477 85.5659 50.05 85.5659 50.05L85.6038 50.0885L77.6774 60.3458C77.7136 58.1076 75.8958 58.0115 75.2614 58.0395L79.1435 53.0133L81.6163 55.2335C81.6933 52.9906 79.9626 52.8238 79.2671 52.8462L83.1209 47.8631L85.5583 50.0525C85.6398 47.8758 84.0115 47.6589 83.2754 47.6606L87.0983 42.7129L89.4978 44.8638C89.5762 42.7558 88.0477 42.4812 87.2836 42.475L90.4861 38.3296C90.5222 38.2841 90.5176 38.2178 90.4696 38.1741C90.424 38.1381 90.3578 38.1427 90.3166 38.1984L87.0085 42.4881C86.9167 42.4925 86.8606 42.5022 86.8606 42.5022L86.9416 42.5691L82.9925 47.6762C82.9517 47.6809 82.9186 47.6832 82.9186 47.6832L82.9565 47.7217L75.0301 57.979C75.0663 55.7409 73.246 55.637 72.614 55.6727L76.4962 50.6465L78.969 52.8667C79.0459 50.6238 77.3153 50.4571 76.6198 50.4794L80.4736 45.4963L82.9109 47.6857C82.9925 45.509 81.3642 45.2922 80.6281 45.2939L84.451 40.3462L86.8505 42.497C86.9289 40.3891 85.4004 40.1144 84.6363 40.1083L87.8388 35.9628C87.8749 35.9173 87.8703 35.851 87.8223 35.8074C87.7767 35.7713 87.7105 35.7759 87.6692 35.8316L84.3586 40.1137C84.2669 40.118 84.2108 40.1278 84.2108 40.1278L84.2918 40.1946L80.3427 45.3017C80.3019 45.3065 80.2688 45.3088 80.2688 45.3088L80.3067 45.3473L72.3803 55.6046C72.4164 53.3664 70.5962 53.2626 69.9642 53.2983L73.8464 48.2721L76.3191 50.4923C76.3961 48.2494 74.6655 48.0826 73.97 48.105L77.8238 43.1219L80.2611 45.3113C80.3427 43.1346 78.7144 42.9177 77.9783 42.9194L81.8012 37.9717L84.2007 40.1226C84.2791 38.0147 82.7506 37.74 81.9865 37.7338L85.189 33.5884C85.225 33.5429 85.2205 33.4766 85.1725 33.4329C85.1269 33.3969 85.0607 33.4015 85.0194 33.4572L81.7088 37.7392C81.6171 37.7436 81.561 37.7533 81.561 37.7533L81.642 37.8202L77.6929 42.9273C77.6521 42.9321 77.619 42.9344 77.619 42.9344L77.6569 42.9729L69.7305 53.2302C69.7666 50.992 67.9489 50.8959 67.3144 50.9238L71.1966 45.8977L73.6693 48.1179C73.7463 45.875 72.0157 45.7082 71.3202 45.7306L75.174 40.7475L77.6113 42.9368C77.6929 40.7602 76.0646 40.5433 75.3284 40.545L79.1514 35.5973L81.5509 37.7482C81.6293 35.6402 80.1008 35.3656 79.3367 35.3594L82.5392 31.214C82.5752 31.1684 82.5707 31.1022 82.5227 31.0585C82.4771 31.0225 82.4108 31.027 82.3696 31.0827L79.0615 35.3725C78.9698 35.3768 78.9137 35.3866 78.9137 35.3866L78.9946 35.4534L75.0456 40.5605C75.0048 40.5653 74.9717 40.5676 74.9717 40.5676L75.0096 40.6061L67.0831 50.8634C67.1193 48.6252 65.2991 48.5214 64.6671 48.5571L68.5492 43.5309L71.022 45.7511C71.099 43.5082 69.3684 43.3414 68.6729 43.3638L72.5266 38.3807L74.964 40.5701C75.0455 38.3934 73.4172 38.1765 72.6811 38.1782L76.504 33.2305L78.9035 35.3814C78.9819 33.2735 77.4534 32.9988 76.6894 32.9926L79.8919 28.8472C79.9279 28.8017 79.9234 28.7354 79.8753 28.6917C79.8298 28.6557 79.7635 28.6603 79.7223 28.716L76.4117 32.998C76.32 33.0024 76.2639 33.0121 76.2639 33.0121L76.3448 33.079L72.3958 38.1861C72.355 38.1909 72.3219 38.1932 72.3219 38.1932L72.3598 38.2317L64.4333 48.489C64.4695 46.2508 62.6517 46.1547 62.0173 46.1826L65.8994 41.1565L68.3722 43.3767C68.4492 41.1338 66.7186 40.967 66.0231 40.9894L69.8768 36.0063L72.3142 38.1956C72.3957 36.019 70.7674 35.8021 70.0313 35.8038L73.8542 30.8561L76.2537 33.007C76.3321 30.899 74.8036 30.6244 74.0396 30.6182L77.2421 26.4728C77.2781 26.4272 77.2736 26.361 77.2255 26.3173C77.18 26.2813 77.1137 26.2858 77.0725 26.3415L73.7619 30.6236C73.6702 30.628 73.6141 30.6377 73.6141 30.6377L73.695 30.7046L69.746 35.8117C69.7052 35.8165 69.6721 35.8187 69.6721 35.8187L69.71 35.8572L61.7835 46.1145C61.8197 43.8764 59.9994 43.7726 59.3675 43.8082L63.2496 38.782L65.7224 41.0022C65.7994 38.7593 64.0688 38.5926 63.3733 38.615L67.227 33.6319L69.6644 35.8212C69.7459 33.6446 68.1176 33.4277 67.3815 33.4294L71.2044 28.4817L73.6039 30.6325C73.6823 28.5246 72.1538 28.25 71.3898 28.2438L74.5923 24.0983C74.6283 24.0528 74.6238 23.9866 74.5757 23.9429C74.5302 23.9069 74.4639 23.9114 74.4227 23.9671L71.1146 28.2569C71.0229 28.2612 70.9667 28.2709 70.9667 28.2709L71.0477 28.3378L67.0987 33.4449C67.0579 33.4497 67.0247 33.452 67.0247 33.452L67.0626 33.4905L55.1151 48.946C55.1151 48.946 55.0865 49.0145 55.0965 49.0451C55.1039 49.0681 55.1089 49.0834 55.1317 49.1015C55.1772 49.1375 55.241 49.1253 55.2795 49.0874L57.7624 51.3128C57.7624 51.3128 57.7338 51.3813 57.7438 51.4119C57.7512 51.4349 57.7562 51.4502 57.779 51.4682C57.8245 51.5042 57.8883 51.492 57.9268 51.4541L60.4097 53.6795C60.4097 53.6795 60.3812 53.7481 60.3911 53.7787C60.3986 53.8017 60.4035 53.817 60.4263 53.835C60.4719 53.871 60.5356 53.8588 60.5741 53.8209L63.0571 56.0463C63.0571 56.0463 63.0285 56.1148 63.0384 56.1455C63.0459 56.1684 63.0508 56.1838 63.0736 56.2018C63.1192 56.2378 63.183 56.2256 63.2215 56.1877L65.7044 58.4131C65.7044 58.4131 65.6758 58.4816 65.6857 58.5122C65.6932 58.5352 65.6982 58.5505 65.7209 58.5685C65.7665 58.6046 65.8303 58.5923 65.8688 58.5544L68.3517 60.7798C68.3517 60.7798 68.3231 60.8484 68.3331 60.879C68.3405 60.902 68.3455 60.9173 68.3683 60.9353C68.4138 60.9713 68.4776 60.9591 68.5161 60.9212L70.999 63.1466C70.999 63.1466 70.9705 63.2151 70.9804 63.2458C70.9878 63.2687 70.9928 63.2841 71.0156 63.3021C71.0611 63.3381 71.1249 63.3259 71.1634 63.288L73.6464 65.5134C73.6464 65.5134 73.6178 65.5819 73.6277 65.6125C73.6352 65.6355 73.6401 65.6508 73.6629 65.6688C73.7085 65.7049 73.7722 65.6926 73.8108 65.6548L76.2937 67.8801C76.2937 67.8801 76.2651 67.9487 76.275 67.9793C76.2825 68.0023 76.2875 68.0176 76.3102 68.0356C76.3558 68.0716 76.4196 68.0594 76.4581 68.0215L78.941 70.2469C78.941 70.2469 78.9124 70.3154 78.9224 70.3461C78.9298 70.3691 78.9348 70.3844 78.9576 70.4024C79.0031 70.4384 79.0669 70.4262 79.1054 70.3883L81.5883 72.6137C81.5883 72.6137 81.5597 72.6822 81.5697 72.7128C81.5771 72.7358 81.5821 72.7511 81.6049 72.7691C81.6504 72.8052 81.7142 72.793 81.7527 72.7551L84.2356 74.9804C84.2356 74.9804 84.2071 75.049 84.217 75.0796C84.2245 75.1026 84.2294 75.1179 84.2522 75.1359C84.2977 75.1719 84.3615 75.1597 84.4 75.1218L86.883 77.3472C86.883 77.3472 86.8544 77.4157 86.8643 77.4464C86.8718 77.4694 86.8767 77.4847 86.8995 77.5027C86.9451 77.5387 87.0088 77.5265 87.0474 77.4886L89.6036 79.7833L89.6286 79.8345ZM55.4452 49.076L59.3582 44.0144L61.8411 46.2398L57.9357 51.2989C57.921 49.0603 56.0007 49.0397 55.4476 49.0836L55.4452 49.076ZM58.0823 51.4376L61.9953 46.376L64.4783 48.6014L60.5704 53.6528C60.5557 51.4142 58.6354 51.3937 58.0823 51.4376ZM60.7296 53.8043L64.6426 48.7428L67.1256 50.9681L63.2202 56.0272C63.2055 53.7887 61.2852 53.7681 60.7321 53.812L60.7296 53.8043ZM63.3668 56.1659L67.2798 51.1044L69.7627 53.3297L65.8549 58.3812C65.8402 56.1426 63.9199 56.122 63.3668 56.1659ZM66.0065 58.5352L69.9195 53.4736L72.4024 55.699L68.4946 60.7504C68.4798 58.5119 66.5595 58.4913 66.0065 58.5352ZM68.6513 60.8943L72.5643 55.8327L75.0472 58.0581L71.1419 63.1172C71.1272 60.8786 69.2069 60.858 68.6538 60.902L68.6513 60.8943ZM71.291 63.2636L75.204 58.202L77.6869 60.4274L73.7791 65.4788C73.7643 63.2402 71.844 63.2196 71.291 63.2636ZM73.9306 65.6328L77.8436 60.5712L80.3266 62.7966L76.4187 67.848C76.404 65.6095 74.4837 65.5889 73.9306 65.6328ZM76.5755 67.9919L80.4885 62.9303L82.9714 65.1557L79.0661 70.2148C79.0513 67.9762 77.131 67.9557 76.578 67.9996L76.5755 67.9919ZM79.2151 70.3612L83.1281 65.2996L85.6111 67.525L81.7032 72.5764C81.6885 70.3378 79.7682 70.3172 79.2151 70.3612ZM81.8523 72.7228L85.7653 67.6612L88.2482 69.8866L84.3429 74.9457C84.3282 72.7071 82.4079 72.6865 81.8548 72.7304L81.8523 72.7228ZM84.4996 75.0895L88.4126 70.028L90.8956 72.2533L86.9902 77.3124C86.9755 75.0739 85.0552 75.0533 84.5021 75.0972L84.4996 75.0895Z" fill="#86817D"/>
<path d="M94.5389 35.5506C94.5389 35.5506 94.0523 35.5645 92.0964 33.3714L94.5389 35.5506Z" fill="#6B6663"/>
<path d="M92.0861 33.3661C92.0861 33.3661 91.5844 33.3595 89.6056 31.1484L92.0861 33.3661Z" fill="#6B6663"/>
<path d="M89.6155 31.1536C89.6155 31.1536 89.1012 31.1342 87.1098 28.9102L89.6155 31.1536Z" fill="#6B6663"/>
<path d="M87.1079 28.9028C87.1079 28.9028 86.5809 28.8705 84.5769 26.6337L87.1079 28.9028Z" fill="#6B6663"/>
<path d="M84.5787 26.6412C84.5787 26.6412 84.0468 26.5936 82.0351 24.3593L84.5787 26.6412Z" fill="#6B6663"/>
<path d="M82.0275 24.3618C82.0275 24.3618 81.4854 24.309 79.4661 22.0772L82.0275 24.3618Z" fill="#6B6663"/>
<path d="M79.4738 22.0747C79.4738 22.0747 78.9317 22.0219 76.9124 19.7901L79.4738 22.0747Z" fill="#6B6663"/>
<path d="M76.9054 19.7927C76.9054 19.7927 76.3608 19.7323 74.3363 17.5106L76.9054 19.7927Z" fill="#6B6663"/>
<path d="M74.336 17.5105C74.336 17.5105 73.7914 17.4501 71.7719 15.2437L74.336 17.5105Z" fill="#6B6663"/>
<path d="M71.7719 15.2439C71.7719 15.2439 71.2298 15.1911 69.2152 13.0001L71.7719 15.2439Z" fill="#6B6663"/>
<path d="M69.218 13.0077C69.218 13.0077 68.6784 12.9626 66.6713 10.7945L69.218 13.0077Z" fill="#6B6663"/>
<path d="M66.6714 10.7946C66.6714 10.7946 66.1343 10.7571 64.1448 8.61723L66.6714 10.7946Z" fill="#6B6663"/>
<path d="M96.943 37.6915C96.943 37.6915 96.4715 37.7258 94.5383 35.5507L96.943 37.6915Z" fill="#6B6663"/>
<path d="M96.869 38.9005C96.869 38.9005 96.2944 38.7736 94.4341 36.7188L96.869 38.9005Z" fill="#6B6663"/>
<path d="M94.4318 36.7114C94.4318 36.7114 93.8421 36.564 91.959 34.4911L94.4318 36.7114Z" fill="#6B6663"/>
<path d="M91.9691 34.4961C91.9691 34.4961 91.3642 34.3283 89.471 32.2503L91.9691 34.4961Z" fill="#6B6663"/>
<path d="M89.4683 32.2426C89.4683 32.2426 88.8483 32.0542 86.945 29.9711L89.4683 32.2426Z" fill="#6B6663"/>
<path d="M86.9454 29.9711C86.9454 29.9711 86.3129 29.77 84.3994 27.6816L86.9454 29.9711Z" fill="#6B6663"/>
<path d="M84.3991 27.6817C84.3991 27.6817 83.7539 27.4677 81.8429 25.387L84.3991 27.6817Z" fill="#6B6663"/>
<path d="M81.843 25.3869C81.843 25.3869 81.1953 25.1652 79.2766 23.087L81.843 25.3869Z" fill="#6B6663"/>
<path d="M79.2766 23.0871C79.2766 23.0871 78.6188 22.8602 76.7025 20.7896L79.2766 23.0871Z" fill="#6B6663"/>
<path d="M76.7028 20.7896C76.7028 20.7896 76.0425 20.5551 74.1313 18.4998L76.7028 20.7896Z" fill="#6B6663"/>
<path d="M74.1309 18.4998C74.1309 18.4998 73.4629 18.2677 71.5668 16.233L74.1309 18.4998Z" fill="#6B6663"/>
<path d="M71.559 16.2356C71.559 16.2356 70.891 16.0035 69.0024 13.9918L71.559 16.2356Z" fill="#6B6663"/>
<path d="M69.0032 13.9916C69.0032 13.9916 68.3352 13.7595 66.4565 11.7784L69.0032 13.9916Z" fill="#6B6663"/>
<path d="M99.2633 41.0362C99.2633 41.0362 98.714 40.935 96.8663 38.893L99.2633 41.0362Z" fill="#6B6663"/>
<path d="M99.0629 42.007C99.0629 42.007 98.4809 41.8572 96.6332 39.8152L99.0629 42.007Z" fill="#6B6663"/>
<path d="M96.6354 39.823C96.6354 39.823 96.0383 39.6527 94.1678 37.5927L96.6354 39.823Z" fill="#6B6663"/>
<path d="M94.1684 37.5925C94.1684 37.5925 93.5561 37.4017 91.673 35.3288L94.1684 37.5925Z" fill="#6B6663"/>
<path d="M91.6724 35.329C91.6724 35.329 91.0451 35.1176 89.1442 33.0421L91.6724 35.329Z" fill="#6B6663"/>
<path d="M89.1467 33.0497C89.1467 33.0497 88.4965 32.8204 86.6033 30.7423L89.1467 33.0497Z" fill="#6B6663"/>
<path d="M86.596 30.7447C86.596 30.7447 85.9332 30.5025 84.0323 28.427L86.596 30.7447Z" fill="#6B6663"/>
<path d="M84.035 28.4347C84.035 28.4347 83.3697 28.1849 81.4612 26.1119L84.035 28.4347Z" fill="#6B6663"/>
<path d="M81.4608 26.112C81.4608 26.112 80.7854 25.857 78.8793 23.7916L81.4608 26.112Z" fill="#6B6663"/>
<path d="M78.8792 23.7916C78.8792 23.7916 78.1936 23.5314 76.2925 21.4813L78.8792 23.7916Z" fill="#6B6663"/>
<path d="M76.2922 21.4813C76.2922 21.4813 75.6042 21.2135 73.7105 19.1864L76.2922 21.4813Z" fill="#6B6663"/>
<path d="M73.7032 19.1887C73.7032 19.1887 73.0075 18.9233 71.1265 16.9091L73.7032 19.1887Z" fill="#6B6663"/>
<path d="M71.1269 16.9093C71.1269 16.9093 70.4312 16.6439 68.5601 14.6603L71.1269 16.9093Z" fill="#6B6663"/>
<path d="M101.46 44.1502C101.46 44.1502 100.905 44.0337 99.0702 42.0045L101.46 44.1502Z" fill="#6B6663"/>
<path d="M101.351 45.2267C101.351 45.2267 100.845 45.1793 98.9242 43.0425L101.351 45.2267Z" fill="#6B6663"/>
<path d="M98.9235 43.0425C98.9235 43.0425 98.4019 42.9746 96.4636 40.8097L98.9235 43.0425Z" fill="#6B6663"/>
<path d="M96.4643 40.8098C96.4643 40.8098 95.9199 40.7239 93.9689 38.5461L96.4643 40.8098Z" fill="#6B6663"/>
<path d="M93.9635 38.5563C93.9635 38.5563 93.404 38.4499 91.4429 36.2669L93.9635 38.5563Z" fill="#6B6663"/>
<path d="M91.4402 36.2593C91.4402 36.2593 90.8681 36.14 88.8943 33.9442L91.4402 36.2593Z" fill="#6B6663"/>
<path d="M88.8895 33.9543C88.8895 33.9543 88.3048 33.8222 86.3233 31.6289L88.8895 33.9543Z" fill="#6B6663"/>
<path d="M86.3232 31.629C86.3232 31.629 85.7283 31.4918 83.7367 29.2933L86.3232 31.629Z" fill="#6B6663"/>
<path d="M83.7363 29.2931C83.7363 29.2931 83.1312 29.1507 81.1422 26.9598L83.7363 29.2931Z" fill="#6B6663"/>
<path d="M81.1503 26.9574C81.1503 26.9574 80.5453 26.815 78.5486 24.6266L81.1503 26.9574Z" fill="#6B6663"/>
<path d="M78.5512 24.6343C78.5512 24.6343 77.936 24.4867 75.9519 22.3112L78.5512 24.6343Z" fill="#6B6663"/>
<path d="M75.9519 22.3113C75.9519 22.3113 75.3367 22.1637 73.3601 20.0112L75.9519 22.3113Z" fill="#6B6663"/>
<path d="M73.3575 20.0036C73.3575 20.0036 72.7347 19.8585 70.7732 17.7265L73.3575 20.0036Z" fill="#6B6663"/>
<path d="M103.732 47.375C103.732 47.375 103.249 47.3456 101.353 45.2345L103.732 47.375Z" fill="#6B6663"/>
<path d="M103.95 48.9047C103.95 48.9047 103.6 49.0776 101.535 46.7334L103.95 48.9047Z" fill="#6B6663"/>
<path d="M101.543 46.7307C101.543 46.7307 101.178 46.8831 99.0905 44.5208L101.543 46.7307Z" fill="#6B6663"/>
<path d="M99.0911 44.5208C99.0911 44.5208 98.7078 44.6705 96.6084 42.27L99.0911 44.5208Z" fill="#6B6663"/>
<path d="M96.6079 42.2699C96.6079 42.2699 96.2095 42.3992 94.0923 39.9959L96.6079 42.2699Z" fill="#6B6663"/>
<path d="M94.0895 39.9883C94.0895 39.9883 93.6835 40.12 91.5486 37.6886L94.0895 39.9883Z" fill="#6B6663"/>
<path d="M91.5413 37.6912C91.5413 37.6912 91.1251 37.8178 88.9776 35.3735L91.5413 37.6912Z" fill="#6B6663"/>
<path d="M88.9779 35.3736C88.9779 35.3736 88.5592 35.4924 86.394 33.0455L88.9779 35.3736Z" fill="#6B6663"/>
<path d="M86.4013 33.0428C86.4013 33.0428 85.975 33.1642 83.8072 30.7096L86.4013 33.0428Z" fill="#6B6663"/>
<path d="M83.8075 30.7096C83.8075 30.7096 83.3735 30.8334 81.2058 28.3788L83.8075 30.7096Z" fill="#6B6663"/>
<path d="M81.206 28.379C81.206 28.379 80.7745 28.5105 78.5966 26.0507L81.206 28.379Z" fill="#6B6663"/>
<path d="M78.5985 26.0583C78.5985 26.0583 78.1618 26.1999 75.994 23.7453L78.5985 26.0583Z" fill="#6B6663"/>
<path d="M75.9939 23.7453C75.9939 23.7453 75.5572 23.887 73.3944 21.4477L75.9939 23.7453Z" fill="#6B6663"/>
<path d="M106.314 51.0247C106.314 51.0247 105.979 51.2181 103.948 48.897L106.314 51.0247Z" fill="#6B6663"/>
<path d="M96.844 37.7238C96.829 37.6779 96.8473 37.6296 96.8883 37.5994C96.9369 37.5667 97.0082 37.5775 97.0409 37.6261C99.8399 41.6876 102.72 45.7904 105.512 49.7525C106.625 51.3302 107.733 52.918 108.845 54.4957C108.878 54.5444 108.867 54.6156 108.819 54.6483C108.77 54.681 108.699 54.6702 108.666 54.6216C107.561 53.0414 106.446 51.4561 105.333 49.8784C102.541 45.9163 99.658 41.8058 96.8591 37.7443C96.8566 37.7367 96.8516 37.7213 96.8491 37.7137L96.844 37.7238Z" fill="#6B6663"/>
<path d="M94.4316 35.5856C94.4167 35.5397 94.4349 35.4914 94.4759 35.4612C94.5246 35.4285 94.5958 35.4392 94.6285 35.4879C97.1936 39.1935 99.8321 42.943 102.388 46.567C103.757 48.5186 105.132 50.46 106.494 52.414C106.527 52.4627 106.516 52.5339 106.467 52.5666C106.418 52.5993 106.347 52.5885 106.315 52.5399C104.945 50.5883 103.578 48.6445 102.208 46.6929C99.6528 43.0689 97.0142 39.3194 94.4492 35.6138C94.4467 35.6061 94.4418 35.5908 94.4393 35.5831L94.4316 35.5856Z" fill="#6B6663"/>
<path d="M91.9861 33.3988C91.9712 33.3529 91.9894 33.3046 92.0227 33.2769C92.0714 33.2442 92.1426 33.2549 92.1753 33.3036C94.5064 36.6533 96.8907 40.0366 99.2071 43.3149C100.839 45.6302 102.47 47.9455 104.104 50.2684C104.137 50.3171 104.126 50.3883 104.077 50.421C104.029 50.4537 103.957 50.4429 103.925 50.3943C102.301 48.0765 100.667 45.7536 99.0277 43.4408C96.719 40.16 94.3271 36.7792 91.996 33.4295C91.9935 33.4218 91.9886 33.4065 91.9861 33.3988Z" fill="#6B6663"/>
<path d="M89.5082 31.1888C89.4933 31.1428 89.5115 31.0946 89.5448 31.0669C89.5935 31.0341 89.6647 31.0449 89.6974 31.0935C91.7668 34.0541 93.8919 37.0558 95.9439 39.9628C97.8246 42.6289 99.7658 45.3771 101.672 48.0944C101.704 48.143 101.694 48.2143 101.645 48.247C101.596 48.2797 101.525 48.2689 101.492 48.2203C99.5865 45.503 97.6453 42.7548 95.7645 40.0887C93.7125 37.1817 91.5875 34.18 89.5181 31.2194C89.5156 31.2118 89.5107 31.1964 89.5082 31.1888Z" fill="#6B6663"/>
<path d="M86.9998 28.9377C86.9849 28.8917 87.0032 28.8435 87.0365 28.8158C87.0852 28.783 87.1564 28.7938 87.1891 28.8425C88.9817 31.3933 90.8096 33.975 92.5771 36.4748C94.7525 39.5533 97.001 42.7267 99.1962 45.8665C99.2289 45.9151 99.2182 45.9864 99.1695 46.0191C99.1208 46.0518 99.0496 46.041 99.0169 45.9924C96.8216 42.8525 94.5732 39.6792 92.3978 36.6006C90.6303 34.1009 88.7998 31.5115 87.0073 28.9607C87.0048 28.953 86.9998 28.9377 86.9974 28.93L86.9998 28.9377Z" fill="#6B6663"/>
<path d="M84.472 26.6764C84.4571 26.6304 84.4753 26.5822 84.5086 26.5544C84.5573 26.5217 84.6285 26.5325 84.6612 26.5811C86.1366 28.6761 87.6196 30.7687 89.1027 32.8612C91.6004 36.3854 94.1787 40.0275 96.7013 43.6283C96.734 43.677 96.7232 43.7482 96.6746 43.7809C96.6259 43.8136 96.5547 43.8029 96.5219 43.7542C94.007 40.1509 91.4211 36.5113 88.9258 32.9947C87.4428 30.9022 85.9598 28.8097 84.4844 26.7147C84.4819 26.707 84.4769 26.6917 84.4745 26.684L84.472 26.6764Z" fill="#6B6663"/>
<path d="M81.9283 24.3945C81.9134 24.3485 81.9316 24.3003 81.965 24.2725C82.0136 24.2398 82.0849 24.2506 82.1176 24.2992C83.2406 25.8821 84.3661 27.4726 85.489 29.0554C88.3443 33.0817 91.3005 37.2361 94.1779 41.3568C94.2106 41.4054 94.1999 41.4767 94.1512 41.5094C94.1025 41.5421 94.0313 41.5313 93.9986 41.4827C91.1236 37.3697 88.165 33.2076 85.3097 29.1813C84.1867 27.5985 83.0637 26.0156 81.9383 24.4251C81.9358 24.4174 81.9308 24.4021 81.9283 24.3945Z" fill="#6B6663"/>
<path d="M79.367 22.1098C79.3521 22.0639 79.3703 22.0156 79.4036 21.9879C79.4523 21.9552 79.5235 21.9659 79.5562 22.0146L81.6889 25.0139C84.9573 29.6088 88.3441 34.36 91.6217 39.062C91.6544 39.1107 91.6437 39.1819 91.595 39.2146C91.5463 39.2473 91.4751 39.2366 91.4424 39.1879C88.1647 34.4859 84.778 29.7347 81.5096 25.1397L79.3769 22.1405C79.3769 22.1405 79.3694 22.1175 79.367 22.1098Z" fill="#6B6663"/>
<path d="M76.8056 19.8252C76.7907 19.7793 76.8089 19.731 76.8422 19.7033C76.8909 19.6706 76.9621 19.6813 76.9948 19.73L77.6621 20.6649C81.4166 25.9233 85.3071 31.3662 89.063 36.7596C89.0958 36.8082 89.085 36.8795 89.0363 36.9122C88.9877 36.9449 88.9164 36.9341 88.8837 36.8855C85.1278 31.4921 81.2373 26.0492 77.4828 20.7907L76.8155 19.8558C76.8155 19.8558 76.8081 19.8329 76.8056 19.8252Z" fill="#6B6663"/>
<path d="M74.2362 17.543C74.2213 17.497 74.2396 17.4488 74.2729 17.421C74.3216 17.3883 74.3928 17.3991 74.4255 17.4477C78.5202 23.1546 82.5214 28.7562 86.4838 34.4467C86.5165 34.4954 86.5057 34.5666 86.4571 34.5993C86.4084 34.632 86.3372 34.6213 86.3044 34.5726C82.3446 28.8898 78.3433 23.2881 74.2487 17.5813C74.2462 17.5736 74.2412 17.5583 74.2387 17.5506L74.2362 17.543Z" fill="#6B6663"/>
<path d="M71.6638 15.2788C71.6489 15.2328 71.6671 15.1846 71.7005 15.1568C71.7491 15.1241 71.8204 15.1349 71.8531 15.1835C75.6759 20.496 79.7755 26.2182 83.8863 32.1314C83.919 32.18 83.9082 32.2513 83.8596 32.284C83.8109 32.3167 83.7397 32.3059 83.707 32.2573C79.5987 26.3517 75.4966 20.6219 71.6839 15.3146C71.6814 15.3069 71.6765 15.2916 71.674 15.284L71.6638 15.2788Z" fill="#6B6663"/>
<path d="M69.1106 13.0426C69.0957 12.9966 69.114 12.9484 69.1473 12.9206C69.196 12.8879 69.2672 12.8987 69.2999 12.9473C74.1604 19.6841 77.8619 24.8835 81.2853 29.826C81.318 29.8747 81.3072 29.9459 81.2586 29.9786C81.2099 30.0113 81.1387 30.0006 81.106 29.9519C77.6749 25.0119 73.9811 19.8099 69.1206 13.0732C69.1181 13.0655 69.1131 13.0502 69.1106 13.0426Z" fill="#6B6663"/>
<path d="M66.5633 10.8295C66.5484 10.7836 66.5666 10.7353 66.6 10.7076C66.6486 10.6749 66.7199 10.6857 66.7526 10.7343C71.3665 17.1023 75.1611 22.4324 78.6852 27.5285C78.7179 27.5772 78.7071 27.6484 78.6584 27.6811C78.6098 27.7138 78.5386 27.7031 78.5058 27.6544C74.9742 22.5608 71.1872 17.2282 66.5757 10.8678C66.5733 10.8602 66.5683 10.8449 66.5658 10.8372L66.5633 10.8295Z" fill="#6B6663"/>
<path d="M103.513 54.9212L100.459 52.187L97.1622 53.2477L100.263 55.967L103.513 54.9212Z" fill="#B5B5B5"/>
<path d="M97.1627 53.2476L90.7604 55.3071L93.8148 58.0413L100.263 55.9669L97.1627 53.2476Z" fill="#F1F1F1"/>
<path d="M100.46 52.1868L90.7604 55.307L94.4874 50.2465L101.337 48.0506L100.46 52.1868Z" fill="#B5B5B5"/>
<path d="M103.514 54.9211L100.46 52.1869L101.337 48.0506L104.391 50.7849L103.514 54.9211Z" fill="#DCDCDC"/>
<path d="M104.712 50.6805L102.35 51.4381L100.405 49.6984L102.765 48.9331L104.712 50.6805Z" fill="#F4F4F4"/>
<path d="M104.146 53.3448L101.778 54.1125L102.35 51.4381L104.712 50.6805L104.146 53.3448Z" fill="#B5B5B5"/>
<path d="M100.778 52.0749L98.416 52.8325L99.608 47.2397L101.97 46.482L100.778 52.0749Z" fill="#B5B5B5"/>
<path d="M104.945 55.8111L102.575 56.5713L98.4156 52.8324L100.778 52.0748L104.945 55.8111Z" fill="#F4F4F4"/>
<path d="M106.135 50.2106L104.938 55.8136L100.773 52.0849L101.971 46.4819L106.135 50.2106ZM102.201 51.6049L104.146 53.3447L104.718 50.6703L102.773 48.9306L102.201 51.6049Z" fill="#F1F1F1"/>
<path d="M35.308 54.6839L37.5145 53.9683L45.5645 16.2344L43.3503 16.9525L35.308 54.6839Z" fill="#676767"/>
<path d="M35.3544 54.669L70.2843 85.7187L72.4525 85.0156L37.5149 53.9683L35.3544 54.669Z" fill="#898989"/>
<path d="M63.5843 69.0814C63.3698 69.1509 63.1365 69.0319 63.0669 68.8174C62.9973 68.603 63.1164 68.3696 63.3309 68.3001C63.5455 68.2305 63.7788 68.3495 63.8484 68.564C63.9179 68.7785 63.7989 69.0118 63.5843 69.0814Z" fill="#FFD74A"/>
<path d="M63.2902 68.9313C63.2206 68.7168 63.3397 68.4835 63.5542 68.4139C63.6155 68.394 63.6818 68.3895 63.7453 68.4027C63.6443 68.3 63.4842 68.2504 63.331 68.3C63.1165 68.3696 62.9974 68.6029 63.067 68.8174C63.1167 68.9706 63.2407 69.0658 63.3856 69.095C63.3376 69.0513 63.3024 68.995 63.2825 68.9338L63.2902 68.9313Z" fill="#BFA138"/>
<path d="M52.6855 61.6615L47.2513 56.8632L46.0077 57.2581L51.304 62.1011L52.6855 61.6615Z" fill="#B3ACA6"/>
<path d="M48.0084 58.5985L53.0602 63.1314L51.9371 62.4882L46.8878 57.9629L48.0084 58.5985Z" fill="#504D4A"/>
<path d="M49.0381 58.2731L54.0873 62.7983L53.0607 63.1313L48.0089 58.5984L49.0381 58.2731Z" fill="#6B6663"/>
<path d="M54.5612 60.5791L54.5384 60.5611L52.3702 61.2643L54.087 62.7985L54.5612 60.5791Z" fill="#504D4A"/>
<path d="M49.5128 56.0536L49.0387 58.273L52.3711 61.2641L54.5393 60.5609L49.5128 56.0536Z" fill="#6B6663"/>
<path d="M49.0372 58.2731L48.008 58.5984L46.8875 57.9629L47.1261 56.8189L49.5113 56.0538L49.0372 58.2731Z" fill="#504D4A"/>
<path d="M49.3716 56.7173L53.8439 60.7948L53.5915 62.3666L49.0354 58.2654L49.3716 56.7173Z" fill="#66382D"/>
<path d="M54.2758 62.1277C53.7089 62.3116 53.1002 62.0011 52.9163 61.4343C52.7325 60.8674 53.0431 60.2588 53.6101 60.0749C54.177 59.891 54.7858 60.2015 54.9696 60.7684C55.1534 61.3352 54.8428 61.9438 54.2758 62.1277Z" fill="#217333"/>
<path d="M53.4684 60.9168C53.0241 61.0609 52.5396 60.8202 52.393 60.3682C52.2464 59.9163 52.4898 59.4395 52.9418 59.2929C53.3938 59.1463 53.8707 59.3895 54.0172 59.8415C54.1638 60.2934 53.9205 60.7702 53.4684 60.9168Z" fill="#5BBD70"/>
<path d="M52.519 59.8699C51.9521 60.0538 51.3433 59.7433 51.1595 59.1765C50.9757 58.6096 51.2863 58.001 51.8532 57.8171C52.4202 57.6332 53.0289 57.9437 53.2128 58.5105C53.3966 59.0774 53.086 59.686 52.519 59.8699Z" fill="#217333"/>
<path d="M53.4186 61.7031C53.0738 61.8149 52.7086 61.6286 52.5968 61.284C52.485 60.9393 52.6714 60.5741 53.0161 60.4622C53.3609 60.3504 53.7261 60.5367 53.8379 60.8814C53.9497 61.2261 53.7633 61.5913 53.4186 61.7031Z" fill="#32AC4C"/>
<path d="M52.7728 60.6514C52.4357 60.7607 52.0705 60.5744 51.9612 60.2374C51.8519 59.9004 52.0383 59.5352 52.3754 59.4258C52.7125 59.3165 53.0777 59.5028 53.187 59.8398C53.2963 60.1769 53.1099 60.5421 52.7728 60.6514Z" fill="#32AC4C"/>
<path d="M50.4846 58.5318C50.5944 58.8703 50.9578 59.0556 51.2963 58.9458C51.6348 58.836 51.8202 58.4727 51.7105 58.1343C51.6007 57.7958 51.2373 57.6105 50.8988 57.7203C50.5603 57.83 50.3749 58.1934 50.4846 58.5318Z" fill="#32AC4C"/>
<path d="M52.0309 60.1641C51.8163 60.2337 51.5753 60.1171 51.5033 59.895C51.4312 59.6729 51.5503 59.4395 51.7725 59.3675C51.9947 59.2954 52.228 59.4145 52.3001 59.6366C52.3721 59.8587 52.253 60.0921 52.0309 60.1641Z" fill="#217333"/>
<path d="M52.9098 61.0726C52.6952 61.1421 52.4542 61.0256 52.3822 60.8034C52.3102 60.5813 52.4292 60.348 52.6514 60.2759C52.8736 60.2039 53.1069 60.3229 53.179 60.545C53.251 60.7672 53.1319 61.0005 52.9098 61.0726Z" fill="#217333"/>
<path d="M50.7105 58.628C50.496 58.6975 50.255 58.581 50.183 58.3589C50.1109 58.1367 50.23 57.9034 50.4522 57.8314C50.6744 57.7593 50.9077 57.8783 50.9798 58.1005C51.0518 58.3226 50.9327 58.5559 50.7105 58.628Z" fill="#217333"/>
<path d="M49.5726 57.6511C49.7564 58.2179 50.3651 58.5284 50.9321 58.3445C51.4991 58.1606 51.8097 57.552 51.6259 56.9852C51.442 56.4183 50.8333 56.1078 50.2663 56.2917C49.6993 56.4756 49.3887 57.0842 49.5726 57.6511Z" fill="#217333"/>
<path d="M49.9304 58.4918C49.6546 58.5812 49.3604 58.4311 49.2709 58.1554C49.1815 57.8796 49.3317 57.5854 49.6075 57.496C49.8833 57.4065 50.1775 57.5566 50.2669 57.8324C50.3564 58.1081 50.2062 58.4023 49.9304 58.4918Z" fill="#32AC4C"/>
<path d="M51.8142 59.7598C51.5384 59.8493 51.2442 59.6992 51.1547 59.4234C51.0653 59.1477 51.2154 58.8535 51.4913 58.764C51.7671 58.6746 52.0613 58.8247 52.1507 59.1004C52.2402 59.3762 52.09 59.6704 51.8142 59.7598Z" fill="#32AC4C"/>
<path d="M71.1567 78.6461L65.7225 73.8477L64.4813 74.2503L69.7776 79.0933L71.1567 78.6461Z" fill="#EBE2E8"/>
<path d="M66.4747 75.5932L71.524 80.1185L70.401 79.4753L65.3517 74.95L66.4747 75.5932Z" fill="#504D4A"/>
<path d="M67.5014 75.2603L72.5507 79.7856L71.524 80.1185L66.4748 75.5932L67.5014 75.2603Z" fill="#6B6663"/>
<path d="M73.025 77.5662L73.0099 77.5457L70.8417 78.2489L72.5509 79.7855L73.025 77.5662Z" fill="#504D4A"/>
<path d="M67.9758 73.0407L67.5017 75.2601L70.8418 78.2487L73.01 77.5455L67.9758 73.0407Z" fill="#6B6663"/>
<path d="M67.501 75.2602L66.4744 75.5932L65.3513 74.95L65.5899 73.806L67.9751 73.0409L67.501 75.2602Z" fill="#504D4A"/>
<path d="M67.8451 73.7097L72.3097 77.7897L72.0625 79.3513L67.5089 75.2578L67.8451 73.7097Z" fill="#66382D"/>
<path d="M72.7426 79.1224C72.1757 79.3062 71.567 78.9957 71.3831 78.4289C71.1993 77.8621 71.5099 77.2534 72.0769 77.0695C72.6438 76.8857 73.2526 77.1962 73.4364 77.763C73.6202 78.3298 73.3096 78.9385 72.7426 79.1224Z" fill="#217333"/>
<path d="M71.9323 77.9039C71.4879 78.048 71.0034 77.8072 70.8569 77.3553C70.7103 76.9034 70.9536 76.4266 71.4057 76.28C71.8577 76.1334 72.3345 76.3766 72.4811 76.8285C72.6277 77.2805 72.3843 77.7573 71.9323 77.9039Z" fill="#5BBD70"/>
<path d="M69.6341 76.1689C69.8179 76.7358 70.4266 77.0462 70.9936 76.8623C71.5606 76.6785 71.8712 76.0698 71.6874 75.503C71.5035 74.9361 70.8949 74.6256 70.3279 74.8095C69.7609 74.9934 69.4503 75.602 69.6341 76.1689Z" fill="#217333"/>
<path d="M71.8854 78.698C71.5406 78.8098 71.1754 78.6235 71.0636 78.2788C70.9518 77.9341 71.1382 77.5689 71.4829 77.4571C71.8277 77.3453 72.1929 77.5316 72.3047 77.8763C72.4165 78.221 72.2301 78.5862 71.8854 78.698Z" fill="#32AC4C"/>
<path d="M71.2465 77.6436C70.9094 77.7529 70.5441 77.5666 70.4348 77.2296C70.3255 76.8925 70.5119 76.5273 70.849 76.418C71.1861 76.3087 71.5513 76.495 71.6606 76.832C71.77 77.169 71.5836 77.5343 71.2465 77.6436Z" fill="#32AC4C"/>
<path d="M69.768 75.9305C69.4309 76.0398 69.0656 75.8535 68.9563 75.5164C68.847 75.1794 69.0334 74.8142 69.3705 74.7049C69.7076 74.5956 70.0728 74.7819 70.1821 75.1189C70.2914 75.4559 70.1051 75.8211 69.768 75.9305Z" fill="#32AC4C"/>
<path d="M70.4947 77.1512C70.2802 77.2207 70.0392 77.1042 69.9672 76.8821C69.8951 76.6599 70.0142 76.4266 70.2364 76.3545C70.4586 76.2825 70.6919 76.4015 70.7639 76.6237C70.836 76.8458 70.7169 77.0791 70.4947 77.1512Z" fill="#217333"/>
<path d="M71.3805 78.0572C71.1659 78.1267 70.9249 78.0102 70.8529 77.7881C70.7809 77.5659 70.8999 77.3326 71.1221 77.2606C71.3443 77.1885 71.5776 77.3075 71.6497 77.5297C71.7217 77.7518 71.6027 77.9851 71.3805 78.0572Z" fill="#217333"/>
<path d="M69.1852 75.6202C68.9706 75.6897 68.7296 75.5732 68.6576 75.3511C68.5855 75.1289 68.7046 74.8956 68.9268 74.8235C69.149 74.7515 69.3823 74.8705 69.4544 75.0926C69.5264 75.3148 69.4073 75.5481 69.1852 75.6202Z" fill="#217333"/>
<path d="M69.4038 75.3291C68.8368 75.513 68.2281 75.2025 68.0443 74.6357C67.8604 74.0689 68.1711 73.4602 68.738 73.2763C69.305 73.0924 69.9137 73.4029 70.0975 73.9698C70.2814 74.5366 69.9707 75.1453 69.4038 75.3291Z" fill="#217333"/>
<path d="M68.3962 75.4866C68.1204 75.5761 67.8262 75.426 67.7368 75.1502C67.6473 74.8745 67.7975 74.5803 68.0733 74.4909C68.3491 74.4014 68.6433 74.5515 68.7328 74.8272C68.8222 75.103 68.6721 75.3972 68.3962 75.4866Z" fill="#32AC4C"/>
<path d="M70.2781 76.7469C70.0023 76.8363 69.708 76.6863 69.6186 76.4105C69.5292 76.1347 69.6793 75.8406 69.9551 75.7511C70.2309 75.6617 70.5252 75.8117 70.6146 76.0875C70.704 76.3632 70.5539 76.6574 70.2781 76.7469Z" fill="#32AC4C"/>
<g style="mix-blend-mode:multiply">
<path d="M88.252 41.7799L90.744 55.3121L94.4787 50.2491L89.1366 37.6412L88.252 41.7799Z" fill="#B3ACA6"/>
</g>
</g>
<defs>
<linearGradient id="paint0_linear_89_34428" x1="69.3997" y1="-8.55137" x2="69.3997" y2="101.537" gradientUnits="userSpaceOnUse">
<stop stop-color="white"/>
<stop offset="1" stop-color="#F6F7F9"/>
</linearGradient>
<clipPath id="clip0_89_34428">
<rect width="76" height="70" fill="white" transform="translate(90.998 -0.506836) rotate(72.0313)"/>
</clipPath>
</defs>
</svg>
