<svg width="126" height="73" viewBox="0 0 126 73" fill="none" xmlns="http://www.w3.org/2000/svg">
<path d="M57.9967 -26.2546C50.6519 -26.7038 43.1144 -26.3101 36.1208 -24.1262C34.4246 -23.5983 32.7601 -22.9653 31.1392 -22.2109C25.989 -19.825 21.5521 -16.3037 17.8809 -12.0428L17.8817 -12.0383C13.5937 -7.04638 10.3893 -1.04197 8.41576 5.3515C6.29859 22.1311 13.0509 43.9937 39.0557 56.045C42.8747 57.8213 47.1025 59.3761 51.789 60.6779C56.0499 61.8588 60.1064 62.6234 63.964 63.0029C94.0188 66.0382 111.728 46.4775 116.711 29.2011C116.706 22.73 116.144 16.2569 114.148 10.1244C110.468 -1.13976 102.041 -10.5237 91.8516 -16.5744C81.6703 -22.6311 69.8314 -25.5242 58.0011 -26.2554L57.9967 -26.2546ZM73.258 -19.4785C101.18 -11.1184 112.553 11.818 110.494 28.2886C110.013 32.1495 108.565 36.2165 106.145 40.0667C99.4266 50.7703 85.2506 59.7918 63.6666 57.9532C59.86 57.6295 55.8209 56.9678 51.5553 55.9212C46.4817 54.6713 42.0403 53.024 38.1506 51.0756C16.5658 40.2749 12.1055 20.4943 12.1044 11.2053L12.1021 11.1919C12.1082 9.90197 12.1948 8.81469 12.3383 7.98013C13.1365 2.38961 15.4952 -2.60557 19.0151 -6.8362C23.4422 -12.174 29.7183 -16.3027 37.0186 -18.9024C47.7421 -22.7289 60.685 -23.2503 73.2662 -19.4845L73.258 -19.4785Z" fill="#FFD6F7"/>
<path d="M73.258 -19.4784C101.18 -11.1182 112.553 11.8182 110.494 28.2888C110.013 32.1496 108.565 36.2167 106.145 40.0669C98.2385 52.6619 80.0156 62.9242 51.5508 55.9221C18.3104 47.7439 12.0955 22.1671 12.0999 11.2063L12.0976 11.1928C12.1037 9.90292 12.1904 8.81563 12.3338 7.98108C15.6163 -15.0453 45.3347 -27.843 73.2572 -19.4828L73.258 -19.4784Z" fill="#FACAE5"/>
<path d="M73.0858 -34.8091C74.643 -34.5032 76.2176 -34.1496 77.7961 -33.746C109.169 -25.6414 121.241 -0.0252881 117.857 23.9161C117.61 25.6336 117.235 27.4052 116.711 29.1974C116.706 22.7263 116.143 16.2532 114.147 10.1207C110.468 -1.14343 102.041 -10.5274 91.8515 -16.5781C81.6701 -22.6348 69.8312 -25.5279 58.001 -26.259C48.8742 -26.8194 39.44 -26.0754 31.1435 -22.2153C19.9791 -17.0296 12.0712 -6.50111 8.42083 5.35153C8.53182 4.40742 8.67793 3.48035 8.85469 2.57108C11.9649 -20.2235 32.049 -35.4561 57.5927 -36.1278C62.5781 -36.2624 67.7772 -35.844 73.0895 -34.8143L73.0858 -34.8091Z" fill="#E6C7D7"/>
<path d="M106.145 40.0669C98.2385 52.6619 80.0156 62.9242 51.5508 55.9221C18.3104 47.7439 12.0955 22.1672 12.0999 11.2063C15.5242 27.7107 26.7053 42.5137 41.791 50.0975C58.2166 58.3603 78.7712 57.8008 94.7314 48.6599C98.8878 46.2773 102.706 43.3677 106.149 40.0661L106.145 40.0669Z" fill="#A67994"/>
<path d="M38.1462 51.0758C42.0359 53.0241 46.4774 54.6715 51.5509 55.9213C55.8166 56.9679 59.8556 57.6296 63.6622 57.9533C63.5724 59.6442 63.6728 61.3441 63.9604 63.0075C60.1028 62.628 56.0463 61.8634 51.7854 60.6825C47.1034 59.3799 42.8703 57.8214 39.0521 56.0496C38.5648 54.4293 38.2578 52.7599 38.1418 51.0765L38.1462 51.0758Z" fill="white"/>
<path d="M68.7872 -5.60619C78.8039 -5.0637 86.9879 2.2948 86.7528 10.5192L85.9435 39.155L78.9096 36.6368L79.1183 15.5924C79.1773 9.79623 73.5197 4.57193 66.6373 4.0809C63.2219 3.83791 60.2134 4.82378 58.1244 6.58769C56.1068 8.28421 54.9473 10.6956 55.0841 13.448C55.164 15.0271 55.4902 22.2492 55.6698 26.2004C55.7382 27.6848 54.3375 28.7056 52.5478 28.4945C50.7678 28.2863 49.2533 26.9328 49.1551 25.4627L47.8478 5.51862L39.7444 2.85545L41.44 22.9176L35.0731 20.6403L33.9438 9.31989C33.5239 5.09198 35.7575 1.52664 39.4887 -0.189784C41.2474 -0.999893 43.3351 -1.39182 45.6155 -1.24576C46.1274 -1.21315 46.6304 -1.15141 47.1275 -1.07026C49.5155 -0.6709 51.7643 0.290698 53.6742 1.64137C56.1849 -2.94697 61.8835 -5.97853 68.7872 -5.60619Z" fill="#FF385C"/>
<path d="M66.921 12.2961C68.8919 12.4626 70.5134 13.9314 70.5323 15.5577L70.7319 33.3196L63.9285 31.0199L63.4689 14.9226C63.421 13.315 64.9606 12.1371 66.9218 12.3006L66.921 12.2961Z" fill="#FF385C"/>
</svg>
