<svg width="75" height="61" viewBox="0 0 75 61" fill="none" xmlns="http://www.w3.org/2000/svg">
<path d="M14.682 28.3758C12.5099 31.7781 10.7472 35.3661 10.1027 38.897C9.94521 39.7538 9.85666 40.6095 9.84139 41.4581C9.79346 44.1479 10.552 46.6367 11.9176 48.8466C13.5215 51.4256 15.9641 53.6173 18.9317 55.2674C27.5441 58.1654 41.2503 57.478 54.6639 46.6247C56.6333 45.034 58.5969 43.2209 60.5354 41.1672C62.2978 39.2978 63.781 37.4759 65.0022 35.7092C74.5445 21.9283 68.51 11.3822 60.3828 7.08216C56.8473 6.34805 53.1653 5.8783 49.2908 6.12235C42.1737 6.57212 34.8337 9.46476 28.8541 13.5679C22.8737 17.6659 18.188 22.9004 14.682 28.3758ZM22.388 21.9731C34.2838 9.79773 49.7958 7.05802 58.2493 9.89791C60.2297 10.5613 62.0737 11.7055 63.5389 13.2813C67.6195 17.6578 68.8257 25.3432 62.1568 35.2781C60.9813 37.0317 59.5619 38.8534 57.8659 40.7381C55.853 42.98 53.7871 44.8797 51.6987 46.4906C40.137 55.4061 28.1612 55.2564 23.0872 54.2041C22.3761 54.059 21.8056 53.8953 21.3894 53.732C18.5463 52.7205 16.4367 51.0468 15.0515 48.9094C13.2963 46.2231 12.6882 42.8042 13.1879 39.0798C13.9113 33.6042 17.0271 27.4608 22.3837 21.9792L22.388 21.9731Z" fill="#FFD6F7"/>
<path d="M22.3882 21.9734C34.284 9.79797 49.796 7.05825 58.2495 9.89815C60.2299 10.5616 62.074 11.7058 63.5392 13.2815C68.3415 18.4292 69.1665 28.1587 57.8714 40.7374C44.6801 55.4317 29.0822 55.4459 23.0969 54.1974C22.3859 54.0523 21.8153 53.8886 21.3991 53.7253C9.68333 49.5674 10.4924 34.1487 22.3882 21.9734Z" fill="#FACAE5"/>
<path d="M13.9707 20.3137C14.5488 19.6142 15.1535 18.9154 15.7911 18.2217C28.4549 4.39923 45.6121 1.63505 57.801 5.94655C58.673 6.2558 59.5461 6.63403 60.3841 7.08741C56.8486 6.3533 53.1666 5.88355 49.2921 6.1276C42.175 6.57737 34.835 9.47001 28.8554 13.5731C22.875 17.6711 18.1893 22.9056 14.6833 28.3811C11.981 32.6078 9.91357 37.1256 9.84269 41.4634C9.74491 47.3009 13.4211 52.2091 18.933 55.2726C18.4478 55.1104 17.9825 54.9395 17.53 54.7504C5.89645 50.701 2.84699 39.5301 9.18792 27.4483C10.4201 25.0891 12.0134 22.6951 13.9707 20.3137Z" fill="#E6C7D7"/>
<path d="M63.5435 13.2794C68.3458 18.4271 69.1708 28.1566 57.8756 40.7353C44.6844 55.4296 29.0865 55.4438 23.1012 54.1953C33.0112 54.4623 44.0337 50.8847 52.137 44.6592C60.9602 37.8802 66.0526 28.155 65.2436 19.6145C65.0301 17.3895 64.4452 15.265 63.5478 13.2734L63.5435 13.2794Z" fill="#A67994"/>
<path d="M10.1028 38.8969C11.0891 39.0644 12.1309 39.1213 13.1923 39.0737C12.6977 42.7972 13.3059 46.2161 15.0559 48.9033C14.0005 48.9232 12.9492 48.9052 11.9168 48.8414C10.5461 46.6323 9.79356 44.1479 9.84061 41.4529C9.85589 40.6043 9.94444 39.7486 10.102 38.8918L10.1028 38.8969Z" fill="white"/>
<path d="M51.7089 46.4884C53.793 44.8835 55.8588 42.9838 57.8761 40.7358C59.5669 38.852 60.9905 37.0243 62.1669 35.2758C63.0689 35.5108 64.0196 35.6577 65.002 35.7087C63.7817 37.4806 62.3028 39.2964 60.5352 41.1667C58.5967 43.2204 56.6331 45.0335 54.6637 46.6242C53.6497 46.669 52.6579 46.6249 51.7089 46.4884Z" fill="white"/>
<path d="M28.7962 25.6512C31.7195 21.0038 37.8907 17.996 42.3188 19.0359L57.7495 22.6682L54.5285 25.6903L43.0864 23.2044C39.9375 22.5216 35.5956 24.5851 33.5237 27.7628C32.4942 29.3426 32.2423 30.8646 32.6567 32.0498C33.0529 33.1902 34.0697 34.0069 35.6021 34.257C36.483 34.3998 40.5175 35.065 42.7237 35.4293C43.5503 35.5653 43.7408 36.3417 43.1563 37.1594C42.5761 37.9711 41.4371 38.5319 40.6123 38.4062L29.3757 36.7527L25.7949 40.2563L37.1939 41.7385L34.2806 44.4741L27.7993 43.7196C25.3787 43.4397 24.0182 41.9791 24.06 40.0353C24.0794 39.1168 24.4105 38.0921 25.0926 37.0343C25.2444 36.801 25.4066 36.5659 25.587 36.3437C26.4311 35.269 27.5463 34.3184 28.7873 33.5752C26.9388 31.8731 26.7813 28.8512 28.7962 25.6512Z" fill="#FF385C"/>
<path d="M38.0815 28.5629C38.6934 27.6554 39.9167 27.0589 40.809 27.237L50.5641 29.1585L47.5204 32.0971L38.6054 30.485C37.7157 30.3224 37.474 29.4643 38.0815 28.5629Z" fill="#FF385C"/>
</svg>
