<svg width="96" height="88" viewBox="0 0 96 88" fill="none" xmlns="http://www.w3.org/2000/svg">
<path d="M33.779 17.6687C28.4643 19.341 23.2452 21.6598 18.8938 25.0987C17.8397 25.9311 16.8301 26.8279 15.8917 27.8039C12.901 30.8864 10.7147 34.5765 9.27352 38.5816L9.27432 38.5862C7.59881 43.2747 6.96058 48.3869 7.29654 53.439C10.3476 65.871 21.0398 79.4954 42.6828 80.9664C45.8612 81.1893 49.2722 81.1421 52.9343 80.7928C56.265 80.4712 59.3397 79.9146 62.1699 79.1354C84.2332 73.1399 91.4524 54.5191 90.2934 40.9586C88.5356 36.3836 86.3861 31.9617 83.3164 28.1717C77.6655 21.2048 69.1655 16.8547 60.3264 15.3378C51.4911 13.8155 42.3387 14.9738 33.7782 17.664L33.779 17.6687ZM46.3992 18.3215C68.3991 16.6682 82.6517 29.7974 85.6538 41.9975C86.3607 44.8545 86.4362 48.1214 85.7719 51.4998C83.9206 60.8856 76.3472 71.1007 60.5924 75.6486C57.8144 76.4525 54.7804 77.079 51.4796 77.4916C47.5534 77.9818 43.968 78.0203 40.6912 77.6989C22.5097 75.9128 13.9987 63.1419 11.484 56.5731L11.4824 56.5638C11.1346 55.6482 10.9 54.8621 10.7734 54.2306C9.82396 50.0607 10.133 45.8929 11.4795 41.9519C13.1642 36.9786 16.4797 32.3617 20.9358 28.5497C27.4778 22.9422 36.485 19.0667 46.3945 18.3223L46.3992 18.3215Z" fill="#FFD6F7"/>
<path d="M46.3994 18.3212C68.3993 16.6678 82.6519 29.797 85.654 41.9972C86.3609 44.8542 86.4364 48.1211 85.7721 51.4994C83.5972 62.5394 73.4979 74.7304 51.4798 77.4913C25.7713 80.7167 14.4496 64.323 11.4842 56.5728L11.4826 56.5635C11.1348 55.6478 10.9002 54.8618 10.7736 54.2303C6.85528 37.067 24.394 19.9707 46.3939 18.3173L46.3994 18.3212Z" fill="#FACAE5"/>
<path d="M42.1248 7.53388C43.3094 7.32758 44.5183 7.15077 45.7428 7.0097C70.1127 4.24251 85.582 19.0759 89.673 36.9157C89.9629 38.1965 90.1792 39.5523 90.2936 40.959C88.5358 36.384 86.3862 31.9621 83.3165 28.1721C77.6656 21.2053 69.1657 16.8551 60.3265 15.3382C51.4912 13.8159 42.3388 14.9742 33.7783 17.6644C27.1731 19.7388 20.7106 22.8213 15.8903 27.7949C9.40241 34.4832 6.66768 44.0674 7.2959 53.4348C7.12003 52.7396 6.97294 52.0443 6.85079 51.3544C2.87715 34.4023 12.942 18.1979 30.8151 10.8022C34.3 9.35469 38.0919 8.2439 42.1248 7.53388Z" fill="#E6C7D7"/>
<path d="M85.7725 51.4995C83.5976 62.5394 73.4982 74.7304 51.4802 77.4913C25.7717 80.7167 14.45 64.323 11.4846 56.5728C18.3723 67.3101 30.2874 74.7432 43.0039 76.0184C56.8492 77.4088 71.2295 71.4428 80.0323 60.6633C82.325 57.8531 84.2339 54.7624 85.7717 51.4948L85.7725 51.4995Z" fill="#A67994"/>
<path d="M18.8938 25.0985C19.4295 26.328 20.1128 27.4939 20.9366 28.5542C16.4805 32.3663 13.165 36.9831 11.4803 41.9564C10.6945 40.8656 9.95608 39.7427 9.27435 38.5861L9.27355 38.5814C10.714 34.5717 12.8956 30.8824 15.8917 27.8037C16.8356 26.8316 17.8405 25.9356 18.8938 25.0985Z" fill="white"/>
<path d="M40.692 77.6991C43.9688 78.0205 47.5541 77.982 51.4804 77.4918C54.7804 77.0746 57.8143 76.448 60.5932 75.6488C60.9879 76.8686 61.5187 78.0412 62.1715 79.1403C59.3404 79.9148 56.2666 80.4761 52.9359 80.7977C49.2738 81.1469 45.862 81.1895 42.6844 80.9713C41.9019 79.9567 41.2305 78.8608 40.6928 77.7037L40.692 77.6991Z" fill="white"/>
<path d="M47.0015 29.3411C54.2261 27.0126 62.004 29.9969 64.0689 35.869L71.2513 56.3282L65.5969 56.4545L60.0416 41.5241C58.5118 37.4146 53.0972 35.2527 48.1019 36.7699C45.6225 37.523 43.7621 39.0351 42.7641 40.8472C41.7979 42.5914 41.6327 44.6123 42.471 46.5201C42.9549 47.6143 45.143 52.6299 46.3398 55.3748C46.7884 56.4029 46.0729 57.5042 44.7526 57.8441C43.4361 58.1784 42.0038 57.6345 41.5335 56.6197L35.2101 42.8764L28.7616 43.1906L35.3931 56.9103L30.2741 57.0223L26.4108 49.3288C24.9668 46.458 25.5821 43.3281 27.7538 41.1051C28.7761 40.0572 30.1453 39.2145 31.7959 38.6984C32.1652 38.5828 32.5384 38.4905 32.9094 38.413C34.706 38.0497 36.5523 38.1199 38.269 38.5577C38.8023 34.635 42.0073 30.9494 46.9875 29.3435L47.0015 29.3411Z" fill="#FF385C"/>
<path d="M50.5262 42.499C51.9639 42.0864 53.5099 42.6782 53.9644 43.8254L58.9185 56.3226L53.4862 56.5407L48.8008 45.2848C48.3308 44.1594 49.1026 42.9093 50.5309 42.4982L50.5262 42.499Z" fill="#FF385C"/>
</svg>
