<svg width="70" height="64" viewBox="0 0 70 64" fill="none" xmlns="http://www.w3.org/2000/svg">
<path d="M21.0544 18.3992C17.8775 19.4741 14.8692 20.8822 12.6153 22.8348C12.0676 23.308 11.5652 23.8164 11.1139 24.3583C9.68393 26.0763 8.88105 28.0834 8.6165 30.2255C8.31442 32.7308 8.7572 35.4212 9.82188 38.0338C13.895 44.3908 23.1334 51.0739 37.4695 51.0179C39.5729 51.0115 41.7882 50.8578 44.1123 50.5354C46.2265 50.2408 48.1351 49.8316 49.8452 49.3221C63.1955 45.3556 64.7704 35.3838 61.7408 28.3707C59.8318 26.0562 57.6904 23.8369 55.053 21.9799C50.2075 18.5698 43.9471 16.6266 37.9387 16.1753C31.9324 15.7202 26.1739 16.6749 21.0544 18.3992ZM29.3774 18.2584C43.4176 16.5563 54.8935 22.8488 58.8939 29.0855C59.8321 30.5454 60.4319 32.2458 60.5617 34.0289C60.9295 38.9869 57.7139 44.594 48.2258 47.5628C46.5521 48.0877 44.6849 48.5298 42.6058 48.869C40.1355 49.2747 37.809 49.4312 35.618 49.3888C23.4897 49.1524 15.8079 42.8269 13.0675 39.5061C12.6822 39.0423 12.3976 38.6395 12.2129 38.3172C10.8968 36.1831 10.4003 34.0015 10.6144 31.8961C10.8743 29.2427 12.2584 26.7111 14.5192 24.5578C17.8358 21.3861 23.0497 19.026 29.3715 18.2601L29.3774 18.2584Z" fill="#FFD6F7"/>
<path d="M29.3772 18.2582C43.4173 16.5561 54.8933 22.8486 58.8937 29.0852C59.8318 30.5451 60.4316 32.2456 60.5614 34.0286C60.9958 39.8616 56.4701 46.595 42.6094 48.8708C26.4198 51.5313 16.3058 43.4281 13.0769 39.5062C12.6916 39.0424 12.4071 38.6396 12.2224 38.3174C6.7936 29.53 15.337 19.9603 29.3772 18.2582Z" fill="#FACAE5"/>
<path d="M24.7861 12.8052C25.5245 12.6525 26.2798 12.5143 27.0536 12.3964C42.4481 10.0265 55.0027 17.1588 60.6581 26.2918C61.0623 26.9457 61.4313 27.6448 61.7384 28.3744C59.8295 26.06 57.688 23.8406 55.0506 21.9837C50.2052 18.5735 43.9448 16.6303 37.9363 16.1791C31.93 15.724 26.1715 16.6787 21.052 18.403C17.1028 19.7363 13.4135 21.5883 11.1116 24.3621C8.01218 28.0936 7.84142 33.1858 9.81953 38.0376C9.58953 37.6801 9.37689 37.3274 9.18203 36.9695C3.75022 28.2952 7.5842 19.471 17.9765 14.9405C20.0018 14.0527 22.2793 13.3302 24.7861 12.8052Z" fill="#E6C7D7"/>
<path d="M60.5657 34.0322C61.0001 39.8652 56.4744 46.5985 42.6137 48.8744C26.4241 51.5349 16.3101 43.4317 13.0812 39.5098C19.3635 44.8369 28.3662 48.2515 36.8546 48.4322C46.0972 48.6286 54.4548 44.9757 58.3725 39.0212C59.3914 37.4685 60.1174 35.7877 60.5717 34.0305L60.5657 34.0322Z" fill="#A67994"/>
<path d="M12.6152 22.8349C13.1671 23.4563 13.8126 24.035 14.525 24.5562C12.268 26.7116 10.8839 29.2432 10.6203 31.8945C9.92604 31.3585 9.25427 30.8001 8.6185 30.2218C8.87924 28.0775 9.68381 26.0763 11.1159 24.3546C11.5672 23.8127 12.0696 23.3043 12.6173 22.8311L12.6152 22.8349Z" fill="white"/>
<path d="M35.6254 49.3934C37.8105 49.4374 40.1371 49.2809 42.6133 48.8735C44.6886 48.5323 46.5616 48.0884 48.2332 47.5674C48.6954 48.1887 49.2351 48.7784 49.8451 49.3224C48.1328 49.8358 46.2302 50.2432 44.1122 50.5357C41.788 50.8582 39.5727 51.0118 37.4693 51.0182C36.7891 50.5198 36.1693 49.9754 35.6254 49.3934Z" fill="white"/>
<path d="M31.6177 23.9749C35.9289 22.484 41.4918 23.7447 43.8202 26.7215L51.9294 37.1005L48.2705 37.3834L42.1496 29.8218C40.4643 27.7416 36.5779 26.8204 33.5827 27.8018C32.0939 28.29 31.1391 29.1452 30.7913 30.1287C30.4548 31.0736 30.6889 32.1317 31.5517 33.0907C32.0483 33.6414 34.3165 36.1707 35.5565 37.5542C36.0213 38.0722 35.741 38.6744 34.937 38.9002C34.1389 39.1244 33.1092 38.8954 32.6401 38.3849L26.2194 31.4695L22.077 31.8773L28.6921 38.7662L25.3817 39.0235L21.5745 35.1638C20.1517 33.7235 20.0298 32.0696 21.0679 30.8318C21.5581 30.2467 22.3056 29.755 23.2977 29.4244C23.5174 29.3521 23.7448 29.2842 23.9772 29.234C25.0831 28.9766 26.3001 28.9408 27.4907 29.1047C27.1782 27.0404 28.6479 25.0004 31.6177 23.9749Z" fill="#FF385C"/>
<path d="M36.1202 30.6904C36.9886 30.4206 38.0915 30.6704 38.577 31.2498L43.8985 37.5684L40.3979 37.8895L35.4599 32.2083C34.968 31.6402 35.2577 30.9585 36.1202 30.6904Z" fill="#FF385C"/>
</svg>
