<svg width="32" height="32" viewBox="0 0 32 32" fill="none" xmlns="http://www.w3.org/2000/svg">
<g clip-path="url(#clip0_705_5609)">
<path d="M15.7143 31.249C24.2371 31.249 31.1461 24.3399 31.1461 15.8171C31.1461 7.29438 24.2371 0.385315 15.7143 0.385315C7.19154 0.385315 0.282471 7.29438 0.282471 15.8171C0.282471 24.3399 7.19154 31.249 15.7143 31.249Z" fill="#3E73C4"/>
<path d="M19.5946 17.8657C19.5946 15.8171 18.3601 15.1149 15.891 14.8217C14.1279 14.5874 13.7759 14.1196 13.7759 13.2998C13.7759 12.48 14.3642 11.9534 15.5389 11.9534C16.597 11.9534 17.1853 12.3044 17.4785 13.1831C17.5091 13.268 17.5649 13.3416 17.6386 13.3938C17.7122 13.4461 17.8001 13.4745 17.8904 13.4753H18.8307C18.8851 13.4768 18.9391 13.4672 18.9896 13.4471C19.0401 13.427 19.086 13.3969 19.1245 13.3586C19.163 13.3203 19.1933 13.2745 19.2136 13.2241C19.2339 13.1737 19.2438 13.1197 19.2426 13.0654V13.0075C19.1277 12.3718 18.806 11.7919 18.3276 11.3578C17.8492 10.9237 17.2408 10.6597 16.597 10.6069V9.20263C16.597 8.96826 16.4205 8.79272 16.1273 8.73389H15.2448C15.0104 8.73389 14.8339 8.90942 14.7751 9.20263V10.5491C13.011 10.7825 11.8951 11.9534 11.8951 13.4174C11.8951 15.3484 13.0699 16.1093 15.5389 16.4025C17.1853 16.6948 17.7139 17.0468 17.7139 17.9833C17.7139 18.9189 16.8912 19.5632 15.7743 19.5632C14.2456 19.5632 13.717 18.9199 13.5405 18.0412C13.4827 17.8078 13.3052 17.6901 13.1287 17.6901H12.1295C12.0752 17.6888 12.0213 17.6985 11.9709 17.7186C11.9205 17.7388 11.8748 17.7689 11.8364 17.8072C11.798 17.8455 11.7677 17.8912 11.7475 17.9416C11.7272 17.9919 11.7174 18.0458 11.7186 18.1V18.1579C11.953 19.622 12.8943 20.6752 14.8339 20.9684V22.3737C14.8339 22.6071 15.0104 22.7836 15.3036 22.8415H16.1861C16.4205 22.8415 16.597 22.6659 16.6558 22.3737V20.9675C18.4199 20.6752 19.5946 19.4455 19.5946 17.8647V17.8657Z" fill="white"/>
<path d="M12.717 24.0124C8.13186 22.3728 5.78043 17.2803 7.48565 12.7732C8.36719 10.3138 10.3068 8.44169 12.717 7.56304C12.9524 7.44634 13.0691 7.2708 13.0691 6.9776V6.15778C13.0691 5.92437 12.9524 5.74884 12.717 5.69C12.6582 5.69 12.5405 5.69 12.4817 5.74787C11.1588 6.16099 9.93076 6.8317 8.86817 7.72138C7.80558 8.61107 6.92948 9.70216 6.29031 10.9318C5.65113 12.1615 5.26151 13.5055 5.14388 14.8863C5.02625 16.2672 5.18293 17.6577 5.6049 18.9778C6.66198 22.257 9.1899 24.7744 12.4817 25.8276C12.717 25.9443 12.9524 25.8276 13.0102 25.5932C13.0691 25.5353 13.0691 25.4755 13.0691 25.3588V24.539C13.0691 24.3635 12.8935 24.1301 12.717 24.0124ZM18.9476 5.74884C18.7123 5.63117 18.477 5.74884 18.4191 5.98224C18.3603 6.04108 18.3603 6.09991 18.3603 6.21661V7.03643C18.3603 7.2708 18.5358 7.50421 18.7123 7.62187C23.2975 9.26151 25.6489 14.354 23.9437 18.8611C23.0622 21.3205 21.1226 23.1926 18.7123 24.0712C18.477 24.1879 18.3603 24.3635 18.3603 24.6567V25.4765C18.3603 25.7099 18.477 25.8854 18.7123 25.9443C18.7711 25.9443 18.8888 25.9443 18.9476 25.8864C20.2705 25.4733 21.4986 24.8026 22.5612 23.9129C23.6238 23.0232 24.4999 21.9321 25.139 20.7024C25.7782 19.4728 26.1678 18.1288 26.2855 16.7479C26.4031 15.3671 26.2464 13.9766 25.8245 12.6565C24.7674 9.31938 22.1806 6.80206 18.9476 5.74884Z" fill="white"/>
</g>
<defs>
<clipPath id="clip0_705_5609">
<rect width="30.8637" height="30.8637" fill="white" transform="translate(0.282104 0.385315)"/>
</clipPath>
</defs>
</svg>
